<svg width="8" height="12" viewBox="0 0 8 12" fill="none" xmlns="http://www.w3.org/2000/svg">
<g id="layer1">
<path id="path9429" d="M0.909833 0.000206632C0.732476 -0.00369422 0.55831 0.0477192 0.411549 0.147378C0.264788 0.247037 0.152724 0.390016 0.0909381 0.556308C0.029152 0.722601 0.0207137 0.903987 0.0667959 1.0753C0.112878 1.24661 0.211191 1.39923 0.348067 1.51209L5.57065 5.9862L0.348067 10.4587C0.253383 10.5283 0.174088 10.6167 0.115147 10.7183C0.0562053 10.82 0.0188884 10.9327 0.00553196 11.0495C-0.00782444 11.1662 0.00306784 11.2845 0.0375265 11.3968C0.0719853 11.5091 0.129268 11.6132 0.205787 11.7024C0.282307 11.7915 0.376416 11.8639 0.482219 11.915C0.588022 11.9661 0.703241 11.9948 0.82066 11.9994C0.938079 12.0039 1.05517 11.9842 1.1646 11.9414C1.27402 11.8986 1.37343 11.8336 1.4566 11.7506L7.43598 6.63464C7.52988 6.55451 7.60528 6.45505 7.65698 6.34296C7.70869 6.23086 7.73546 6.10886 7.73546 5.98541C7.73546 5.86197 7.70869 5.73996 7.65698 5.62787C7.60528 5.51578 7.52988 5.41622 7.43598 5.33609L1.4566 0.215205C1.30555 0.0810394 1.11181 0.00476303 0.909833 9.74702e-06V0.000206632Z" fill="#3A4060"/>
</g>
</svg>
